<svg width="198" height="23" viewBox="0 0 198 23" fill="none" xmlns="http://www.w3.org/2000/svg">
<g filter="url(#filter0_d_148164_2)">
<path fill-rule="evenodd" clip-rule="evenodd" d="M186.818 0L193.456 6.63804L186.818 13.2761L185.87 12.3285L191.56 6.63804L185.87 0.947567L186.818 0Z" fill="white"/>
<path fill-rule="evenodd" clip-rule="evenodd" d="M192.508 7.30784L152 7.30784L152 5.96777L192.508 5.96778L192.508 7.30784Z" fill="white"/>
<path fill-rule="evenodd" clip-rule="evenodd" d="M10.6381 14.2761L4.00002 7.63808L10.6381 1.00004L11.5856 1.94761L5.89516 7.63808L11.5856 13.3286L10.6381 14.2761Z" fill="white"/>
<path fill-rule="evenodd" clip-rule="evenodd" d="M4.94758 6.96828L45.4556 6.96829L45.4556 8.30835L4.94758 8.30834L4.94758 6.96828Z" fill="white"/>
<rect x="129.164" y="2.45654" width="9.56667" height="9.56667" rx="4.78333" fill="white" fill-opacity="0.3"/>
<rect x="102.058" y="2.45654" width="9.56667" height="9.56667" rx="4.78333" fill="white" fill-opacity="0.3"/>
<rect x="74.9528" y="2.4563" width="9.56667" height="9.56667" rx="4.78333" fill="white"/>
</g>
<defs>
<filter id="filter0_d_148164_2" x="0" y="0" width="197.456" height="22.2761" filterUnits="userSpaceOnUse" color-interpolation-filters="sRGB">
<feFlood flood-opacity="0" result="BackgroundImageFix"/>
<feColorMatrix in="SourceAlpha" type="matrix" values="0 0 0 0 0 0 0 0 0 0 0 0 0 0 0 0 0 0 127 0" result="hardAlpha"/>
<feOffset dy="4"/>
<feGaussianBlur stdDeviation="2"/>
<feComposite in2="hardAlpha" operator="out"/>
<feColorMatrix type="matrix" values="0 0 0 0 0 0 0 0 0 0 0 0 0 0 0 0 0 0 0.25 0"/>
<feBlend mode="normal" in2="BackgroundImageFix" result="effect1_dropShadow_148164_2"/>
<feBlend mode="normal" in="SourceGraphic" in2="effect1_dropShadow_148164_2" result="shape"/>
</filter>
</defs>
</svg>
